<svg width="1920" height="1080" viewBox="0 0 1920 1080" fill="none" xmlns="http://www.w3.org/2000/svg">
<g clip-path="url(#clip0_18865_4399)">
<path opacity="0.08" d="M1325.57 -10.8216C1300.19 -50.7669 1328.89 -103 1376.21 -103H1598.78C1619.31 -103 1638.41 -92.5048 1649.42 -75.1784L1883.92 293.869C1904.72 326.599 1904.72 368.401 1883.92 401.131L1649.42 770.178C1638.41 787.505 1619.31 798 1598.78 798H1376.21C1328.89 798 1300.19 745.767 1325.57 705.822L1522.59 395.768C1541.3 366.311 1541.3 328.689 1522.59 299.232L1325.57 -10.8216Z" fill="#555758"/>
<path opacity="0.05" d="M1146.43 -627.822C1171.81 -667.767 1143.11 -720 1095.79 -720H873.218C852.69 -720 833.587 -709.505 822.577 -692.178L574.447 -301.678C561.969 -282.041 561.969 -256.959 574.447 -237.322L816.684 143.905C831.364 167.006 856.835 181 884.206 181H1095.79C1143.11 181 1171.81 128.767 1146.43 88.8216L939.191 -237.322C926.713 -256.959 926.713 -282.041 939.191 -301.678L1146.43 -627.822Z" fill="#555758"/>
<path opacity="0.2" d="M1676.21 179.5H1887.79C1914.99 179.5 1940.31 193.406 1954.89 216.363L2183.5 576.138C2204.19 608.704 2204.19 650.296 2183.5 682.862L1954.89 1042.64C1940.31 1065.59 1914.99 1079.5 1887.79 1079.5H1676.21C1629.28 1079.5 1600.82 1027.7 1625.99 988.09L1823.01 678.036C1841.83 648.416 1841.83 610.584 1823.01 580.964L1625.99 270.91C1600.82 231.298 1629.28 179.5 1676.21 179.5Z" stroke="#555758"/>
</g>
<defs>
<clipPath id="clip0_18865_4399">
<rect width="1920" height="1080" fill="white"/>
</clipPath>
</defs>
</svg>
