<svg width="100" height="100" viewBox="0 0 100 100" fill="none" xmlns="http://www.w3.org/2000/svg">
<path d="M24.3335 13.5515C20.601 7.67961 24.8192 0 31.777 0H49.2192C53.5773 0 57.633 2.22768 59.9709 5.9056L82.653 41.5884C85.9159 46.7215 85.9159 53.2785 82.653 58.4116L59.9709 94.0944C57.633 97.7723 53.5773 100 49.2192 100H31.777C24.8192 100 20.601 92.3204 24.3335 86.4485L43.4921 56.3087C45.9393 52.4589 45.9393 47.5411 43.4921 43.6913L24.3335 13.5515Z" fill="#F3BCB4"/>
<path d="M17.8088 40.1696C15.2983 36.2561 18.1084 31.1146 22.758 31.1146H23.7602C26.0968 31.1146 28.2727 32.3039 29.5343 34.2705L36.6268 45.3266C38.4885 48.2286 38.4885 51.9494 36.6268 54.8514L29.5343 65.9074C28.2727 67.8741 26.0968 69.0633 23.7602 69.0633H22.758C18.1084 69.0633 15.2983 63.9219 17.8088 60.0084L22.4749 52.7348C23.5092 51.1225 23.5092 49.0554 22.4749 47.4432L17.8088 40.1696Z" fill="#F3BCB4"/>
<path d="M49.0851 0C53.4432 0 57.4992 2.22746 59.8371 5.90527L82.5187 41.5889C85.7815 46.7219 85.7815 53.2781 82.5187 58.4111L67.6984 81.7246L32.4846 26.5859L24.1994 13.5518C20.4669 7.67994 24.6851 0.000184708 31.6428 0H49.0851Z" fill="#E05542"/>
<path d="M70.8732 76.9409L62.2648 90.4849C65.5313 83.814 64.3979 76.784 59.8917 69.271L70.8732 76.9409Z" fill="#E05542"/>
</svg>
