<svg width="42" height="42" viewBox="0 0 42 42" fill="none" xmlns="http://www.w3.org/2000/svg">
<path d="M0 8C0 3.58172 3.58172 0 8 0H34C38.4183 0 42 3.58172 42 8V34C42 38.4183 38.4183 42 34 42H8C3.58172 42 0 38.4183 0 34V8Z" fill="white"/>
<path d="M16.0971 14.0729C15.2507 12.7414 16.2072 11 17.7849 11H20.8152C21.7046 11 22.5323 11.4546 23.0094 12.2052L27.5087 19.2834C28.1746 20.3309 28.1746 21.6691 27.5087 22.7166L23.0094 29.7948C22.5323 30.5454 21.7046 31 20.8152 31H17.785C16.2072 31 15.2507 29.2586 16.0971 27.9271L19.682 22.2875C20.1814 21.5018 20.1814 20.4982 19.682 19.7125L16.0971 14.0729Z" fill="#F3BCB4"/>
<path d="M14.5854 19.0709C14.0731 18.2722 14.6466 17.2229 15.5955 17.2229H15.7367C16.2135 17.2229 16.6576 17.4656 16.9151 17.867L18.3128 20.0459C18.6928 20.6381 18.6928 21.3975 18.3128 21.9897L16.9151 24.1686C16.6576 24.57 16.2135 24.8127 15.7367 24.8127H15.5955C14.6466 24.8127 14.0731 23.7634 14.5854 22.9647L15.488 21.5578C15.6991 21.2287 15.6991 20.8069 15.488 20.4778L14.5854 19.0709Z" fill="#F3BCB4"/>
<path d="M20.7884 11C21.6778 11 22.5056 11.4545 22.9828 12.2051L27.4818 19.2832C28.1477 20.3308 28.1477 21.6692 27.4818 22.7168L24.5394 27.3447L17.5365 16.3799L16.0706 14.0732C15.2243 12.7417 16.1804 11 17.7581 11H20.7884Z" fill="#E05542"/>
<path d="M25.1746 26.3874L23.4431 29.111C24.1057 27.7723 23.883 26.3625 22.9783 24.8542L25.1746 26.3874Z" fill="#E05542"/>
</svg>
